<?xml version="1.0" standalone="no"?>
<!DOCTYPE svg PUBLIC "-//W3C//DTD SVG 20010904//EN"
 "http://www.w3.org/TR/2001/REC-SVG-20010904/DTD/svg10.dtd">
<svg version="1.0" xmlns="http://www.w3.org/2000/svg"
 width="1024.000000pt" height="1024.000000pt" viewBox="0 0 1024.000000 1024.000000"
 preserveAspectRatio="xMidYMid meet">
<metadata>
Created by potrace 1.14, written by Peter Selinger 2001-2017
</metadata>
<g transform="translate(0.000000,1024.000000) scale(0.100000,-0.100000)"
fill="#000000" stroke="none">
<path d="M0 5120 l0 -5120 5120 0 5120 0 0 5120 0 5120 -5120 0 -5120 0 0
-5120z m3720 3415 c198 -23 306 -47 520 -117 322 -104 615 -304 836 -569 l66
-79 62 78 c236 291 604 522 996 623 192 50 343 70 585 76 232 6 378 -6 580
-47 648 -132 1240 -530 1602 -1075 191 -288 319 -591 382 -907 58 -285 54
-129 58 -2550 l4 -2228 -856 0 -855 0 0 2183 c0 2136 -1 2184 -20 2260 -42
167 -99 273 -210 390 -118 125 -254 206 -414 247 -110 28 -302 28 -412 0 -289
-74 -522 -304 -611 -605 -17 -57 -18 -184 -21 -2267 l-2 -2208 -855 0 -855 0
-3 2188 c-3 2468 5 2238 -85 2425 -91 188 -208 310 -387 398 -138 68 -228 89
-381 89 -158 0 -230 -17 -373 -86 -99 -48 -125 -67 -205 -144 -97 -94 -153
-177 -206 -308 -64 -157 -60 -7 -60 -2393 l0 -2169 -855 0 -855 0 0 3345 0
3345 209 0 209 0 213 -236 c118 -130 221 -245 229 -256 15 -18 19 -16 100 48
341 269 764 460 1170 528 228 38 488 46 700 21z"/>
</g>
</svg>
